<svg viewBox="0 0 390.1725237772197 216" preserveAspectRatio="xMidYMid meet" class="css-g5ufxp" id="hfhbgeag"><defs id="SvgjsDefs1081"><linearGradient id="SvgjsLinearGradient1090"><stop id="SvgjsStop1091" stop-color="#8f5e25" offset="0"></stop><stop id="SvgjsStop1092" stop-color="#fbf4a1" offset="0.5"></stop><stop id="SvgjsStop1093" stop-color="#8f5e25" offset="1"></stop></linearGradient><linearGradient id="SvgjsLinearGradient1094"><stop id="SvgjsStop1095" stop-color="#8f5e25" offset="0"></stop><stop id="SvgjsStop1096" stop-color="#fbf4a1" offset="0.5"></stop><stop id="SvgjsStop1097" stop-color="#8f5e25" offset="1"></stop></linearGradient><linearGradient id="SvgjsLinearGradient1098"><stop id="SvgjsStop1099" stop-color="#8f5e25" offset="0"></stop><stop id="SvgjsStop1100" stop-color="#fbf4a1" offset="0.5"></stop><stop id="SvgjsStop1101" stop-color="#8f5e25" offset="1"></stop></linearGradient><linearGradient id="SvgjsLinearGradient1102"><stop id="SvgjsStop1103" stop-color="#8f5e25" offset="0"></stop><stop id="SvgjsStop1104" stop-color="#fbf4a1" offset="0.5"></stop><stop id="SvgjsStop1105" stop-color="#8f5e25" offset="1"></stop></linearGradient></defs><g id="SvgjsG1082" featurekey="rootContainer" transform="matrix(1,0,0,1,0,0)" fill="#111"><path xmlns="http://www.w3.org/2000/svg" fill-rule="evenodd" d="M5,65 L195,0 L385, 65 L195, 10 z M5,136 L195,216 L385,131 L195, 206 z"></path></g><g id="SvgjsG1083" featurekey="nameLeftFeature-0" transform="matrix(1.7567874039798392,0,0,1.7567874039798392,-2.9322535182214997,82.8854537954593)" fill="#111"><path d="M16.153 10.8272 c0.95568 0.96942 1.4718 2.2114 1.4534 3.497 c-0.02289 1.5915 -0.78998 3.0436 -2.16 4.0892 c-1.4271 1.089 -3.4354 1.6646 -5.8082 1.6646 c-4.5288 0 -6.808 -0.0667 -6.8304 -0.067344 l-1.1387 -0.03414 l0 -11.373 l7.9691 0 c3.5728 0 5.5148 1.2092 6.5148 2.2236 z M9.6384 17.7304 c3.8486 0 5.5962 -1.7276 5.6208 -3.4396 c0.009414 -0.66168 -0.25962 -1.2893 -0.77796 -1.8153 c-0.9689 -0.9829 -2.6888 -1.5241 -4.843 -1.5241 l-5.6214 0 l0 6.737 c1.09 0.018965 2.963 0.041992 5.6214 0.041992 z M24.5468 13.240400000000001 l11.807 0 l0 2.2697 l-2.1898 0 l0 1.0873 c0 2.4394 -1.9883 3.3248 -3.3248 3.3248 l-6.2924 -0.032304 c-1.4382 0 -3.5776 -0.88534 -3.5776 -3.3248 c0 -0.97478 0.31796 -1.7007 0.78448 -2.2218 c-0.46914 -0.51622 -0.78448 -1.2224 -0.78448 -2.158 c0 -2.4394 1.9883 -3.3248 3.3248 -3.3248 l9.6254 0 l0 2.2699 l-9.6155 0 c-0.099004 0.0033984 -0.3946 0.040684 -0.63826 0.17539 c-0.21096 0.11666 -0.42664 0.31246 -0.42664 0.87956 c0 0.45594 0.15434 0.70288 0.55062 0.88048 c0.3602 0.16152 0.75348 0.17447 0.75714 0.17447 z M31.894 16.5974 l0 -1.0873 l-7.59 0 c-0.099004 0.0033984 -0.39472 0.040684 -0.6384 0.17539 c-0.21096 0.11666 -0.42664 0.31246 -0.42664 0.87956 c0 0.45594 0.15434 0.70288 0.55062 0.88048 c0.3602 0.16152 0.75348 0.17447 0.75714 0.17447 l6.2824 0.032304 c0.099004 -0.0033984 0.3946 -0.040664 0.63826 -0.17537 c0.21096 -0.11666 0.42664 -0.31246 0.42664 -0.87956 z M54.193000000000005 10.8272 c0.95568 0.96942 1.4718 2.2114 1.4534 3.497 c-0.02289 1.5915 -0.78998 3.0436 -2.16 4.0892 c-1.4271 1.089 -3.4354 1.6646 -5.8082 1.6646 c-4.5288 0 -6.808 -0.0667 -6.8304 -0.067344 l-1.1387 -0.03414 l0 -11.373 l7.9691 0 c3.5728 0 5.5148 1.2092 6.5148 2.2236 z M47.67840000000001 17.7304 c3.8486 0 5.5962 -1.7276 5.6208 -3.4396 c0.009414 -0.66168 -0.25962 -1.2893 -0.77796 -1.8153 c-0.9689 -0.9829 -2.6888 -1.5241 -4.843 -1.5241 l-5.6214 0 l0 6.737 c1.09 0.018965 2.963 0.041992 5.6214 0.041992 z"></path></g><g id="SvgjsG1084" featurekey="inlineSymbolFeature-0" transform="matrix(0.06189835000414773,0,0,0.06189835000414773,115,90)" fill="#111"><g xmlns="http://www.w3.org/2000/svg"><path d="M266.4,586.2C129,573.2,21.1,457.1,21.1,316.3c0-149.4,121.6-271,271-271c140.8,0,256.8,107.9,269.8,245.3   c-30-95.7-119.6-165.4-225.1-165.4C206.8,125.3,101,231,101,361.1C101,466.6,170.7,556.1,266.4,586.2z"></path><path d="M336.9,569.4c-113.5,0-206-91.1-208.3-204.1c21.1,70.3,86.5,121.7,163.6,121.7c94.1,0,170.7-76.6,170.7-170.8   c0-77.1-51.4-142.4-121.7-163.6c112.9,2.3,204.1,94.9,204.1,208.3c0,44.1-13.6,86.2-39.4,121.9c-13.6,17.5-29.7,33.5-47.5,47.4   C423.1,555.8,380.9,569.4,336.9,569.4z"></path><circle cx="53.4" cy="53.4" r="53.4"></circle><path d="M367.9,346.9c22.5,0,40.7,18.2,40.7,40.7c0,22.5-18.2,40.7-40.7,40.7c-22.5,0-40.7-18.2-40.7-40.7   C327.2,365.1,345.4,346.9,367.9,346.9z"></path></g></g><g id="SvgjsG1085" featurekey="nameRightFeature-0" transform="matrix(1.6370038657444048,0,0,1.6370038657444048,152.7302052705461,85.37706324744696)" fill="#111"><path d="M26.310000000000002 17.65 l0.040136 2.3242 l-1.1621 0.02002 c-0.015039 0.0002539 -1.0275 0.017129 -3.0076 0.017129 c-1.0032 0 -2.2546 -0.0044532 -3.7506 -0.017402 c-2.4132 -0.021054 -4.3428 -0.54212 -5.7348 -1.549 c-1.3835 -1.0007 -2.1454 -2.4562 -2.1454 -4.0986 c0 -1.6413 0.76854 -3.1002 2.164 -4.1074 c1.383 -0.99846 3.3616 -1.531 5.7218 -1.5402 c4.441 -0.017129 6.719 0.00027344 6.7416 0.00041016 l1.1622 0.0091602 l-0.01832 2.3246 l-1.1622 -0.0091602 c-0.022364 -0.0002539 -2.2892 -0.01752 -6.7144 -0.00039062 c-3.4358 0.01334 -5.5702 1.2866 -5.5702 3.3232 c0 0.90194 0.39812 1.6473 1.1831 2.215 c0.97936 0.70836 2.4984 1.0916 4.3926 1.1081 c4.4144 0.038574 6.6758 0.00089844 6.698 0.00050782 z M44.644999999999996 9.649 c0.91776 0.9099 0.9102 2.226 0.89856 4.2182 c-0.00091796 0.14832 -0.0016992 0.302 -0.0023438 0.46118 c-0.0044532 1.1823 -0.0075976 2.0366 -0.13172 2.757 c-0.10568 0.6142 -0.34974 1.4995 -1.2436 2.0954 c-1.1321 0.75466 -2.8232 0.77168 -6.5282 0.8087 c-0.57862 0.0057618 -1.1122 0.010078 -1.6046 0.010078 c-2.9354 0 -4.411 -0.15537 -5.3538 -1.0922 c-0.98198 -0.9757 -0.97648 -2.4126 -0.96838 -4.5876 c0.0090234 -2.4268 0.014512 -3.8916 1.2447 -4.801 c1.0614 -0.7845 2.6028 -0.80516 5.9798 -0.85054 l0.67396 -0.0092774 c4.2088 -0.060156 5.9508 -0.085136 7.0354 0.99024 z M43.211 13.854199999999999 c0.006543 -1.1448 0.013457 -2.3288 -0.20864 -2.5488 c-0.27556 -0.27322 -1.5123 -0.33638 -3.1584 -0.33638 c-0.67736 0 -1.4242 0.010723 -2.2018 0.021836 l-0.67606 0.0092774 c-2.4194 0.032442 -4.1674 0.055976 -4.625 0.39406 c-0.2888 0.21346 -0.2935 1.4744 -0.29898 2.9346 c-0.0050976 1.3559 -0.0099414 2.6366 0.28016 2.9248 c0.4554 0.45254 2.9138 0.42782 5.2914 0.40428 c2.7302 -0.027206 4.7028 -0.046954 5.258 -0.4171 c0.32686 -0.2179 0.33104 -1.3516 0.33692 -2.9208 c0.00052734 -0.16074 0.0014453 -0.316 0.0023632 -0.46588 z M56.2554 7.711 l9.1766 12.19 l-2.9508 0 l-2.566 -3.3974 l-7.3197 0 l-2.5286 3.3974 l-2.9177 0 z M54.3562 14.1556 l3.7983 0 l-1.8992 -2.5322 z M81.61000000000001 17.65 l0.040136 2.3242 l-1.1621 0.02002 c-0.015039 0.0002539 -1.0275 0.017129 -3.0076 0.017129 c-1.0032 0 -2.2546 -0.0044532 -3.7506 -0.017402 c-2.4132 -0.021054 -4.3428 -0.54212 -5.7348 -1.549 c-1.3835 -1.0007 -2.1454 -2.4562 -2.1454 -4.0986 c0 -1.6413 0.76854 -3.1002 2.164 -4.1074 c1.383 -0.99846 3.3616 -1.531 5.7218 -1.5402 c4.441 -0.017129 6.719 0.00027344 6.7416 0.00041016 l1.1622 0.0091602 l-0.01832 2.3246 l-1.1622 -0.0091602 c-0.022364 -0.0002539 -2.2892 -0.01752 -6.7144 -0.00039062 c-3.4358 0.01334 -5.5702 1.2866 -5.5702 3.3232 c0 0.90194 0.39812 1.6473 1.1831 2.215 c0.97936 0.70836 2.4984 1.0916 4.3926 1.1081 c4.4144 0.038574 6.6758 0.00089844 6.698 0.00050782 z M98.599 8.617 l2.3476 0 l0 11.407 l-2.3476 0 l0 -4.5299 l-11.242 0 l0 4.5299 l-2.3477 0 l0 -11.407 l2.3477 0 l0 4.5299 l11.242 0 l0 -4.5299 z M106.6138 20.02461 l-2.3246 0 l0 -11.295 l2.3246 0 l0 11.295 z M123.55900000000001 8.593 l2.3476 0 l0 11.25 l-13.59 -7.098 l0 7.2556 l-2.3477 0 l0 -11.25 l13.59 7.098 l0 -7.2556 z M145.03 14.394400000000001 c-0.019883 1.3657 -0.00015625 4.4302 0.00023438 4.4608 l0.0077148 1.1699 l-7.8979 0 c-2.3734 0 -4.3588 -0.53114 -5.7416 -1.5357 c-1.3856 -1.0067 -2.1486 -2.467 -2.1486 -4.112 c0 -1.3641 0.51466 -2.5964 1.4885 -3.563 c1.3944 -1.3842 3.6104 -2.1058 6.4102 -2.0846 c1.7076 0.012559 6.6666 0.00013672 6.7164 0 l1.1622 -0.0030078 l0.005879 2.3246 l-1.1622 0.0030078 c-0.050098 0.00013672 -5.0206 0.012695 -6.7396 0 c-2.1376 -0.016875 -3.824 0.4851 -4.7556 1.4098 c-0.53204 0.52812 -0.80174 1.1717 -0.80174 1.9133 c0 2.0496 2.1326 3.323 5.5658 3.323 l5.5599 0 c-0.0024804 -0.63696 -0.0043164 -1.4395 -0.0024804 -2.1608 l-4.4771 0 l0 -2.3246 l6.8269 0 z"></path></g></svg>